<svg width="70" height="70" viewBox="0 0 70 70" fill="none" xmlns="http://www.w3.org/2000/svg">
<g filter="url(#filter0_d)">
<circle cx="34.7999" cy="21.7999" r="16.7999" fill="white"/>
</g>
<path d="M38.6611 13.0035L36.5024 13C34.0772 13 32.5099 14.608 32.5099 17.0968V18.9856H30.3394C30.1519 18.9856 30 19.1377 30 19.3252V22.062C30 22.2496 30.1521 22.4014 30.3394 22.4014H32.5099V29.3072C32.5099 29.4947 32.6618 29.6466 32.8493 29.6466H35.6812C35.8687 29.6466 36.0206 29.4945 36.0206 29.3072V22.4014H38.5584C38.7459 22.4014 38.8978 22.2496 38.8978 22.062L38.8989 19.3252C38.8989 19.2352 38.863 19.1489 38.7995 19.0852C38.7359 19.0215 38.6493 18.9856 38.5593 18.9856H36.0206V17.3844C36.0206 16.6148 36.204 16.2241 37.2065 16.2241L38.6607 16.2236C38.8481 16.2236 39 16.0715 39 15.8841V13.3429C39 13.1557 38.8483 13.0038 38.6611 13.0035Z" fill="#F53838"/>
<defs>
<filter id="filter0_d" x="0" y="0" width="69.5999" height="69.5999" filterUnits="userSpaceOnUse" color-interpolation-filters="sRGB">
<feFlood flood-opacity="0" result="BackgroundImageFix"/>
<feColorMatrix in="SourceAlpha" type="matrix" values="0 0 0 0 0 0 0 0 0 0 0 0 0 0 0 0 0 0 127 0"/>
<feOffset dy="13"/>
<feGaussianBlur stdDeviation="9"/>
<feColorMatrix type="matrix" values="0 0 0 0 0.0658854 0 0 0 0 0.0730469 0 0 0 0 0.1375 0 0 0 0.08 0"/>
<feBlend mode="normal" in2="BackgroundImageFix" result="effect1_dropShadow"/>
<feBlend mode="normal" in="SourceGraphic" in2="effect1_dropShadow" result="shape"/>
</filter>
</defs>
</svg>
