<svg width="70" height="70" viewBox="0 0 70 70" fill="none" xmlns="http://www.w3.org/2000/svg">
<g filter="url(#filter0_d)">
<circle cx="34.7999" cy="21.7999" r="16.7999" fill="white"/>
</g>
<path d="M28.3104 13H41.6898C42.9604 13 44 13.9407 44 15.3102V28.69C44 30.0595 42.9604 31.0002 41.6898 31.0002H28.3104C27.0394 31.0002 26 30.0595 26 28.69V15.3102C26 13.9407 27.0394 13 28.3104 13ZM39.1123 14.9999C38.6666 14.9999 38.3023 15.3644 38.3023 15.8103V17.75C38.3023 18.1957 38.6666 18.5604 39.1123 18.5604H41.1468C41.5926 18.5604 41.9572 18.1957 41.9572 17.75V15.8103C41.9572 15.3644 41.5926 14.9999 41.1468 14.9999H39.1123ZM41.9657 20.6122H40.3815C40.5314 21.1016 40.6125 21.62 40.6125 22.1564C40.6125 25.1504 38.1071 27.5774 35.0172 27.5774C31.9274 27.5774 29.4224 25.1504 29.4224 22.1564C29.4224 21.6196 29.5034 21.1014 29.6534 20.6122H28.0003V28.2157C28.0003 28.6092 28.3222 28.9314 28.7159 28.9314H41.2505C41.6441 28.9314 41.9661 28.6094 41.9661 28.2157V20.6122H41.9657ZM35.017 18.4582C33.0206 18.4582 31.402 20.0263 31.402 21.961C31.402 23.8957 33.0206 25.4638 35.017 25.4638C37.0136 25.4638 38.6324 23.8957 38.6324 21.961C38.6324 20.0263 37.0138 18.4582 35.017 18.4582Z" fill="#F53838"/>
<defs>
<filter id="filter0_d" x="0" y="0" width="69.5999" height="69.5999" filterUnits="userSpaceOnUse" color-interpolation-filters="sRGB">
<feFlood flood-opacity="0" result="BackgroundImageFix"/>
<feColorMatrix in="SourceAlpha" type="matrix" values="0 0 0 0 0 0 0 0 0 0 0 0 0 0 0 0 0 0 127 0"/>
<feOffset dy="13"/>
<feGaussianBlur stdDeviation="9"/>
<feColorMatrix type="matrix" values="0 0 0 0 0.0658854 0 0 0 0 0.0730469 0 0 0 0 0.1375 0 0 0 0.08 0"/>
<feBlend mode="normal" in2="BackgroundImageFix" result="effect1_dropShadow"/>
<feBlend mode="normal" in="SourceGraphic" in2="effect1_dropShadow" result="shape"/>
</filter>
</defs>
</svg>
