<svg width="71" height="71" viewBox="0 0 71 71" fill="none" xmlns="http://www.w3.org/2000/svg">
<g filter="url(#filter0_d)">
<circle cx="35.4" cy="22.3805" r="16.7999" fill="white"/>
</g>
<path d="M43.6147 16.6063C43.3477 16.7247 43.0731 16.8247 42.7925 16.9059C43.1247 16.5302 43.3779 16.0882 43.5325 15.6045C43.5672 15.4961 43.5312 15.3775 43.4421 15.3065C43.3531 15.2356 43.2295 15.2271 43.1315 15.2852C42.5357 15.6385 41.8928 15.8925 41.2188 16.041C40.5399 15.3776 39.6177 15 38.6644 15C36.6521 15 35.0149 16.6371 35.0149 18.6493C35.0149 18.8078 35.025 18.9654 35.0448 19.1208C32.5478 18.9016 30.2263 17.6743 28.6321 15.7188C28.5753 15.6491 28.4878 15.6115 28.3982 15.6187C28.3085 15.6257 28.228 15.6763 28.1827 15.754C27.8593 16.3088 27.6884 16.9433 27.6884 17.5889C27.6884 18.4683 28.0024 19.3026 28.5569 19.9545C28.3883 19.8961 28.2247 19.8231 28.0685 19.7364C27.9846 19.6897 27.8823 19.6904 27.799 19.7382C27.7157 19.786 27.6634 19.8738 27.6612 19.9699C27.6608 19.986 27.6608 20.0022 27.6608 20.0186C27.6608 21.3312 28.3672 22.5129 29.4473 23.157C29.3545 23.1477 29.2618 23.1343 29.1696 23.1167C29.0747 23.0985 28.977 23.1318 28.9129 23.2042C28.8488 23.2766 28.8276 23.3775 28.8571 23.4696C29.2569 24.7178 30.2862 25.6358 31.5304 25.9157C30.4984 26.5621 29.3183 26.9007 28.0793 26.9007C27.8208 26.9007 27.5608 26.8855 27.3064 26.8554C27.18 26.8404 27.0591 26.915 27.0161 27.0352C26.973 27.1555 27.0187 27.2895 27.1262 27.3585C28.7178 28.379 30.5581 28.9183 32.4481 28.9183C36.1636 28.9183 38.488 27.1663 39.7835 25.6964C41.3991 23.8637 42.3256 21.4378 42.3256 19.0408C42.3256 18.9407 42.3241 18.8396 42.321 18.7388C42.9584 18.2586 43.5072 17.6774 43.9537 17.0094C44.0216 16.9079 44.0142 16.7739 43.9356 16.6805C43.8572 16.587 43.7264 16.5568 43.6147 16.6063Z" fill="#F53838"/>
<defs>
<filter id="filter0_d" x="0.600098" y="0.580566" width="69.5999" height="69.5999" filterUnits="userSpaceOnUse" color-interpolation-filters="sRGB">
<feFlood flood-opacity="0" result="BackgroundImageFix"/>
<feColorMatrix in="SourceAlpha" type="matrix" values="0 0 0 0 0 0 0 0 0 0 0 0 0 0 0 0 0 0 127 0"/>
<feOffset dy="13"/>
<feGaussianBlur stdDeviation="9"/>
<feColorMatrix type="matrix" values="0 0 0 0 0.0658854 0 0 0 0 0.0730469 0 0 0 0 0.1375 0 0 0 0.08 0"/>
<feBlend mode="normal" in2="BackgroundImageFix" result="effect1_dropShadow"/>
<feBlend mode="normal" in="SourceGraphic" in2="effect1_dropShadow" result="shape"/>
</filter>
</defs>
</svg>
